<svg width="152" height="47" viewBox="0 0 152 47" fill="none" xmlns="http://www.w3.org/2000/svg">
<path d="M21.8366 9.84872L22.9535 9.61283C23.2364 9.61283 23.4747 9.6718 23.6385 9.78975C23.8023 9.9077 23.8917 10.0256 23.8917 10.1288C23.8917 10.232 23.8619 10.3942 23.8172 10.5859C23.7725 10.7775 23.3556 12.7532 22.5812 16.4832C21.8068 20.2133 21.2409 22.9998 20.8835 24.8279C22.611 22.4985 24.6363 19.6383 26.9446 16.2326C29.2529 12.8269 30.6081 10.5711 30.9953 9.45065C31.1144 9.09681 31.2782 8.83143 31.4718 8.63977C31.6654 8.44811 31.8441 8.33016 31.9931 8.30067C32.142 8.27119 32.3803 8.2417 32.693 8.2417C33.0057 8.2417 33.3781 8.31542 33.8099 8.44811C34.2418 8.5808 34.4652 8.80195 34.4652 9.1263C34.4652 9.71603 33.5716 11.441 31.7995 14.2717C30.0273 17.1024 27.9871 20.1101 25.6937 23.2946C23.4003 26.4792 21.494 29.0003 19.9601 30.8579C19.6921 31.1823 19.3496 31.3592 18.9624 31.3592C18.5752 31.3592 18.1582 31.2855 17.7263 31.1528C17.2944 31.0201 17.071 30.7842 17.071 30.4304C17.071 29.3246 18.0539 23.9876 20.0197 14.4486C18.3369 16.6012 16.2966 19.6088 13.899 23.4568C11.3971 27.4375 9.98234 29.9144 9.65471 30.8579C9.476 31.4329 9.26752 31.772 9.02924 31.8605C8.86543 31.9342 8.68671 31.9637 8.508 31.9637L7.30174 32.0964C7.06346 32.0964 6.85496 32.0374 6.64647 31.9047C6.45287 31.772 6.34863 31.6393 6.34863 31.4919C6.34863 31.0938 6.91455 29.8849 8.03146 27.8798C9.14838 25.8747 10.4738 23.6927 11.9779 21.3338C13.482 18.9748 15.0457 16.6896 16.6839 14.4634C18.322 12.2371 19.5878 10.7333 20.4814 9.98141C20.6601 9.81923 20.8686 9.74552 21.1068 9.74552L21.8366 9.84872Z" fill="#37393F"/>
<path d="M39.7365 19.8448C40.5109 19.8448 40.8981 20.1102 40.8981 20.6262C40.8981 20.9063 40.8386 21.1127 40.7045 21.2454C40.5705 21.3781 40.2876 21.8057 39.8557 22.5576C39.4238 23.2947 38.9472 24.2383 38.426 25.403C37.9048 26.553 37.5623 27.5408 37.4134 28.3517C37.3836 28.4549 37.3687 28.5876 37.3687 28.7793C37.3687 29.3395 37.5176 29.6049 37.8303 29.6049C38.1431 29.6049 38.5005 29.4574 38.9175 29.1773C39.3344 28.8825 39.7067 28.5876 40.0344 28.2485C40.362 27.9241 40.6747 27.585 40.9875 27.2459C41.3002 26.9069 41.4789 26.7005 41.5385 26.6562C41.5981 26.612 41.6874 26.5825 41.8066 26.5825C42.0002 26.5825 42.1193 26.7299 42.164 27.0248C42.2087 27.3197 42.2235 27.6145 42.2235 27.9389C42.2235 28.2632 42.1938 28.4696 42.1342 28.5876C41.8363 29.1626 41.196 29.8555 40.1833 30.6664C39.1855 31.4773 38.2622 31.8754 37.4431 31.8754C36.6241 31.8754 36.0135 31.6247 35.6412 31.1382C35.2689 30.6517 35.0604 30.0914 35.0604 29.5017C35.0604 28.8972 35.1646 28.3812 35.3731 27.9241C34.5243 29.0152 33.5563 29.9292 32.4691 30.6959C31.3671 31.4478 30.4885 31.8311 29.7885 31.8311C29.0886 31.8311 28.5376 31.6247 28.0908 31.2119C27.5249 30.6959 27.2568 29.9882 27.2568 29.0741C27.2568 28.16 27.4653 27.246 27.8823 26.3171C28.2993 25.403 28.8354 24.5479 29.5056 23.796C30.1757 23.0294 30.9203 22.3364 31.7245 21.7172C33.4073 20.4051 34.971 19.7563 36.4007 19.7563C36.9517 19.7563 37.3985 19.8448 37.741 20.0217C38.0835 20.1986 38.3069 20.4345 38.3962 20.6999C38.6345 20.3313 38.843 20.1102 39.0217 20.007C39.1557 19.889 39.4089 19.8448 39.7365 19.8448ZM37.7112 21.5255C35.9688 21.5255 34.1668 22.4839 32.3053 24.4005C31.65 25.0934 31.0395 25.9043 30.4736 26.8626C29.9077 27.8209 29.6396 28.4696 29.6396 28.8235C29.6396 29.1773 29.7439 29.3542 29.9524 29.3542C30.2353 29.3542 31.0246 28.794 32.3351 27.6883C33.6456 26.5825 34.5094 25.7569 34.9264 25.2261C35.4029 24.6364 36.3262 23.3979 37.7112 21.5255Z" fill="#37393F"/>
<path d="M51.3235 11.854L51.9489 12.0014C52.0383 12.0014 52.1277 12.0457 52.1872 12.1341C52.2617 12.2226 52.2915 12.311 52.2915 12.3848C52.2915 12.4585 52.1872 12.6796 51.9639 13.0335C51.7405 13.3873 51.5022 13.7854 51.2043 14.2277C50.9065 14.67 50.7576 14.9206 50.7427 14.9648C51.532 14.9059 52.0979 14.8764 52.4255 14.8764C52.7531 14.8764 52.9765 14.9059 53.1105 14.9501C53.2297 14.9943 53.3786 15.127 53.5275 15.3334C53.6913 15.5398 53.8254 15.702 53.9594 15.8052C54.0934 15.9084 54.153 16.0706 54.153 16.277C54.153 16.4834 54.019 16.6751 53.7658 16.8078C53.5126 16.9552 53.2297 17.0437 52.9318 17.0731C50.564 17.309 49.2684 17.427 49.0301 17.4417C48.211 18.6949 47.0494 20.641 45.5751 23.2801C44.1007 25.9191 43.3114 27.5851 43.2221 28.2486C43.1774 28.5582 43.1625 28.7941 43.1625 28.9857C43.1625 29.3838 43.371 29.5755 43.788 29.5755C44.205 29.5755 44.6666 29.4133 45.173 29.1037C45.6793 28.7793 46.1559 28.4402 46.5728 28.0717C47.7196 27.0691 48.3301 26.5531 48.4046 26.5531C48.6727 26.5531 48.8067 27.0101 48.8067 27.9095C48.8067 28.396 48.5833 28.8383 48.1217 29.2364C47.0941 30.1062 46.2303 30.7697 45.5304 31.212C44.8305 31.6543 44.1305 31.8754 43.4157 31.8754C43.2668 31.8754 43.1179 31.8607 42.9838 31.8312C42.1648 31.6838 41.5691 31.3889 41.1967 30.9466C40.8096 30.5043 40.6309 29.9146 40.6309 29.1774C40.6309 28.4402 40.8542 27.5262 41.301 26.4646C41.7478 25.4031 42.2988 24.2679 42.9689 23.0737C44.071 21.1128 45.173 19.2846 46.2601 17.5744L45.6793 17.6481C44.5028 17.7808 43.8178 17.8398 43.6242 17.8398H43.4902C43.1923 17.8398 42.9094 17.7808 42.6413 17.6629C42.3732 17.5449 42.2243 17.3975 42.2243 17.2353C42.2243 17.0584 42.2988 16.8962 42.4477 16.734C42.5966 16.5719 42.686 16.4392 42.7158 16.3507C42.7902 16.1296 43.0583 15.8789 43.5199 15.6135C43.9816 15.3482 44.3241 15.2007 44.5624 15.186C44.8007 15.1713 45.0241 15.1565 45.2474 15.1418C45.4708 15.127 45.7091 15.127 45.9772 15.1123C46.2452 15.0975 46.4537 15.0975 46.6026 15.0828L47.9727 15.0238C48.8216 13.7559 49.4173 12.9303 49.73 12.5764C50.0576 12.2078 50.2363 12.0162 50.281 11.9867C50.3257 11.9572 50.4299 11.9277 50.5937 11.9277L51.3235 11.854Z" fill="#37393F"/>
<path d="M60.4811 26.5822C60.6747 26.5822 60.7939 26.7296 60.8385 27.0245C60.8832 27.3194 60.8981 27.6142 60.8981 27.9386C60.8981 28.2629 60.8683 28.4693 60.8087 28.5873C60.5109 29.1475 59.8706 29.8405 58.8728 30.6514C57.875 31.4622 56.9219 31.8751 56.0284 31.8751C55.4773 31.8751 54.971 31.7129 54.4945 31.3885C54.0328 31.0642 53.7945 30.4892 53.7945 29.6783C53.7945 28.8674 54.0179 28.0565 54.4498 27.2751C51.9181 30.4155 49.9523 31.9783 48.5078 31.9783C47.9419 31.9783 47.4802 31.7719 47.1228 31.3738C46.7654 30.9757 46.6016 30.5629 46.6016 30.1206C46.6016 29.693 46.6611 29.2507 46.7803 28.7937C46.8994 28.3367 47.0334 27.9238 47.1675 27.5553C47.3015 27.1867 47.51 26.7444 47.778 26.2136C48.0461 25.6829 48.2546 25.2995 48.3737 25.0489C48.4929 24.7983 48.7163 24.4444 49.0141 23.9579C49.3119 23.4714 49.6843 22.8079 50.1608 21.9823C50.6374 21.1567 51.0245 20.5374 51.3373 20.1394C51.65 19.7413 51.9479 19.5349 52.2457 19.5349C52.5436 19.5349 52.7967 19.6528 53.0201 19.8887C53.2435 20.1246 53.3626 20.331 53.3626 20.4785C53.3626 20.6259 53.0201 21.3041 52.3351 22.513C50.3246 26.1252 49.312 28.2187 49.312 28.8232C49.312 28.9706 49.3715 29.0443 49.4758 29.0443C49.9672 29.0443 51.1884 27.9976 53.1244 25.904C55.0604 23.8105 56.1922 22.4688 56.5049 21.8791C56.8176 21.2894 57.1006 20.7881 57.3984 20.39C57.6814 19.9919 57.9048 19.7413 58.0537 19.6528C58.4856 19.3727 59.0515 19.2253 59.7514 19.1958C59.8706 19.1958 59.945 19.1958 60.0046 19.2105C60.0641 19.2253 60.1386 19.3137 60.2131 19.4612C60.2875 19.6086 60.3322 19.7413 60.3322 19.8445C60.2429 20.1246 59.8408 20.8765 59.111 22.1002C58.3962 23.3239 57.9941 24.0169 57.9197 24.1643C56.7134 26.6264 56.1177 28.2335 56.1177 28.9706C56.1177 29.3982 56.2815 29.6046 56.6091 29.6046C57.2048 29.5309 57.9197 29.0591 58.7536 28.204C59.0664 27.8944 59.3642 27.57 59.6621 27.2457C59.9599 26.9213 60.1535 26.7296 60.2131 26.6854C60.2875 26.6117 60.3769 26.5822 60.4811 26.5822Z" fill="#37393F"/>
<path d="M64.9046 23.0884C67.3023 20.3904 69.3574 19.034 71.0402 19.034C71.4572 19.034 71.7997 19.1519 72.0678 19.4026C72.3359 19.6532 72.4699 19.9628 72.4699 20.3609C72.4699 20.7589 72.1869 21.4077 71.621 22.3365C71.0551 23.2506 70.5339 24.032 70.0573 24.6659C69.8042 24.9903 69.5212 25.1525 69.1936 25.1525C68.8809 25.1525 68.6277 25.0345 68.449 24.7986C68.2703 24.5627 68.1809 24.2973 68.1809 23.9877C68.1809 23.2948 68.5532 22.4987 69.3127 21.6288L69.2829 21.5993C68.9404 21.6288 68.1214 22.2922 66.7811 23.5602C65.4556 24.8428 64.3238 25.9928 63.3856 26.9954C62.4623 28.0127 61.4496 29.2364 60.3476 30.6959C60.0349 31.1235 59.7668 31.3446 59.5434 31.3446C59.32 31.3446 59.0371 31.2709 58.6797 31.1382C58.3223 31.0055 58.0989 30.9023 58.0244 30.8434C57.95 30.7844 57.9053 30.6812 57.9053 30.5338C57.9053 30.4011 57.95 30.2242 58.0244 30.0472C58.0989 29.8556 58.2627 29.5902 58.4712 29.2511C58.6797 28.912 59.0222 28.3517 59.469 27.5851C59.9157 26.8184 60.6008 25.6537 61.539 24.1057C62.4772 22.5576 63.0282 21.6141 63.2218 21.2897C63.609 20.6263 63.9217 20.1397 64.1749 19.8449C64.6366 19.2699 65.411 18.9897 66.4981 18.9897C66.7364 18.9897 66.8704 19.1372 66.8704 19.4468C66.8704 19.9186 66.4236 20.8179 65.545 22.1153L64.9046 23.0884Z" fill="#37393F"/>
<path d="M81.3313 20.022C81.3313 20.6854 81.0632 21.2752 80.5122 21.7765C79.9612 22.2777 79.3506 22.5284 78.6507 22.5284C78.4273 22.5284 78.2784 22.4694 78.2039 22.3662C78.1295 22.263 78.0997 22.1155 78.0997 21.9534C78.0997 21.7912 78.1146 21.6143 78.1592 21.4521C77.7869 21.57 77.3848 21.7617 76.9381 22.0123C76.4913 22.263 75.9403 22.6316 75.285 23.1328C74.6298 23.6341 74.3022 23.988 74.3022 24.2386C74.3022 24.3123 74.4213 24.3565 74.6596 24.3565C74.8978 24.3565 75.2702 24.2681 75.7616 24.1059C76.253 23.9437 76.6104 23.8553 76.804 23.8553C76.9976 23.8553 77.1317 23.87 77.1912 23.8847C77.3253 23.9585 77.4593 24.1059 77.6231 24.3418C77.772 24.5777 77.8465 24.7693 77.8465 24.902C77.8465 25.0347 77.7125 25.2116 77.4444 25.4328C77.1764 25.6539 76.8785 25.8161 76.5509 25.9341C76.2084 26.052 75.985 26.1405 75.8807 26.1994C73.7363 27.3937 72.664 28.2045 72.664 28.6468C72.664 29.4282 73.3342 29.8263 74.6894 29.8263C75.5531 29.8263 76.4317 29.5609 77.2955 29.0154C78.0401 28.5584 78.7103 28.0866 79.306 27.6001C79.9016 27.1283 80.2739 26.8334 80.4378 26.7155C80.6016 26.5975 80.7207 26.5533 80.7952 26.5533C81.0632 26.5533 81.1973 26.8482 81.1973 27.4379C81.1973 28.0276 81.1675 28.4109 81.093 28.5879C81.0186 28.7795 80.825 29.0007 80.4824 29.2808C78.3082 31.0353 76.2382 31.9199 74.3022 31.9199C73.2597 31.9199 72.4406 31.7724 71.8151 31.4923C70.6684 30.9763 70.1025 30.1949 70.1025 29.1334C70.1025 27.7475 71.0705 26.686 73.0214 25.9783C72.6342 25.8014 72.3811 25.595 72.2768 25.3149C72.1577 25.0495 72.113 24.6219 72.113 24.0322C72.113 23.4424 72.3959 22.8232 72.947 22.1598C73.498 21.4963 74.183 20.9508 74.9872 20.538C76.7743 19.5797 78.3826 19.1079 79.7825 19.1079C80.125 19.1079 80.4526 19.1816 80.8101 19.3438C81.1675 19.506 81.3313 19.7271 81.3313 20.022Z" fill="#37393F"/>
<path d="M116.09 9.76031H116.283C116.343 9.76031 116.388 9.76031 116.402 9.77505C116.417 9.78979 116.432 9.78979 116.462 9.80454C116.492 9.80454 116.507 9.81928 116.536 9.84876C116.581 9.89299 116.656 9.93722 116.745 9.98145C116.864 10.0699 116.924 10.1731 116.924 10.2911C116.924 10.409 116.805 10.6596 116.566 11.043C116.328 11.4263 115.717 12.3551 114.72 13.8589C112.441 17.3089 110.401 20.5229 108.599 23.4716C105.486 28.6023 103.908 31.1823 103.878 31.2118C103.848 31.2413 103.833 31.2708 103.819 31.3003C103.804 31.3593 103.774 31.3888 103.699 31.3888L103.491 31.3445L103.074 31.4477L102.836 31.4035L102.582 31.4477H102.493L101.644 31.5657C101.138 31.5657 100.885 31.3888 100.885 31.0497C100.885 30.9022 100.929 30.7253 101.019 30.5189C101.331 29.7817 102.925 27.1132 105.784 22.4838C103.908 22.528 102.046 22.5575 100.215 22.5575L96.9383 22.5428C96.4022 23.3979 95.6576 24.6068 94.7193 26.1844C92.694 29.6196 91.6218 31.3445 91.4877 31.374C91.3537 31.4035 91.2495 31.433 91.1601 31.433C91.0707 31.433 90.9963 31.3888 90.9367 31.2855C90.8623 31.1971 90.8176 31.1381 90.7878 31.1381C90.758 31.1381 90.7133 31.1529 90.624 31.1971C90.5495 31.2413 90.4304 31.2561 90.2666 31.2561L89.9092 31.2413L89.7751 31.1529C89.7602 31.1529 89.7453 31.1676 89.7305 31.1971C89.7156 31.2266 89.6709 31.2413 89.6113 31.2413C89.1794 31.2413 88.9561 31.0644 88.9561 30.6958C88.9561 30.4599 89.0454 30.1356 89.2092 29.7375C89.3879 29.3394 89.6113 28.9119 89.8943 28.4548C90.1772 27.9978 90.892 26.892 92.0685 25.1671C93.2301 23.4421 93.8109 22.5722 93.8109 22.5575C93.6173 22.5428 93.3939 22.5428 93.1408 22.528C92.6195 22.528 92.2621 22.5133 92.0387 22.469C91.4579 22.3658 91.0559 21.8941 90.8474 21.0537C90.7282 20.6409 90.6836 20.3755 90.6984 20.2428C90.6984 19.9774 90.8176 19.83 91.0559 19.83L91.4579 19.9332C91.6664 19.9479 92.143 19.9627 92.9174 20.0069C93.6918 20.0511 94.2428 20.0659 94.5853 20.0659L95.4491 20.0364C96.7745 17.9871 98.3531 15.6576 100.2 13.0628C98.8594 14.1538 97.3702 14.6993 95.732 14.6993C94.9576 14.6993 94.2875 14.5224 93.7365 14.1538C93.1705 13.7852 92.9025 13.3134 92.9025 12.7532C92.9025 12.193 93.111 11.7507 93.5429 11.4116C93.9747 11.0872 94.3768 10.925 94.764 10.925C95.1512 10.925 95.3448 10.984 95.3448 11.1019C95.3448 11.1462 95.2852 11.1904 95.181 11.2346C95.0768 11.2936 95.0172 11.3378 95.0172 11.3821C95.0172 11.5442 95.1959 11.6917 95.5533 11.8096C95.9107 11.9276 96.3128 12.0013 96.7596 12.0013C97.2063 12.0013 97.7425 11.8686 98.3977 11.618C99.053 11.3673 99.7231 11.0282 100.423 10.6302C101.406 10.0699 102.18 9.59813 102.746 9.22955C103.074 9.06737 103.372 8.99365 103.67 8.99365C103.967 8.99365 104.161 9.02314 104.295 9.09686C104.429 9.15583 104.518 9.22955 104.578 9.28852C104.638 9.34749 104.712 9.43595 104.772 9.53916C104.846 9.64236 104.906 9.73082 104.98 9.77505C105.04 9.83402 105.084 9.89299 105.084 9.96671C105.084 10.0404 105.04 10.1436 104.965 10.3058C104.891 10.4532 104.504 11.0725 103.804 12.1487C103.104 13.225 102.195 14.5961 101.093 16.2621C99.9912 17.9281 99.187 19.1518 98.6807 19.9479C101.406 19.9479 104.34 19.9037 107.497 19.8005C111.339 13.8 113.364 10.6596 113.573 10.3648C113.781 10.0699 113.975 9.87825 114.154 9.78979C114.332 9.70133 114.541 9.6571 114.794 9.6571L116.09 9.76031Z" fill="#37393F"/>
<path d="M121.064 19.8154C121.377 19.8154 121.689 19.9481 122.002 20.2282C122.33 20.5083 122.479 20.9211 122.479 21.4814C122.479 22.0416 122.285 22.7641 121.883 23.6634C121.481 24.548 120.945 25.4621 120.245 26.3909C119.56 27.305 118.785 28.1749 117.966 28.9857C117.132 29.7966 116.239 30.4601 115.286 30.9761C114.318 31.4921 113.454 31.7575 112.665 31.7575C111.875 31.7575 111.25 31.5069 110.773 31.0203C110.297 30.5338 110.059 29.8556 110.059 28.9857C110.059 28.1159 110.282 27.1428 110.714 26.0961C111.146 25.0345 111.697 24.1057 112.382 23.2948C113.067 22.4839 113.797 21.7615 114.601 21.1128C116.254 19.7859 117.713 19.1372 118.964 19.1372C119.53 19.1372 119.947 19.2699 120.23 19.55C120.334 19.6385 120.379 19.7269 120.379 19.7859V19.8744C120.543 19.8154 120.766 19.8154 121.064 19.8154ZM119.53 21.8205H119.426C119.068 21.8205 118.89 21.5699 118.89 21.0538C118.145 21.2897 117.371 21.7173 116.552 22.3218C115.733 22.9262 115.003 23.6487 114.362 24.4743C113.052 26.1255 112.397 27.5262 112.382 28.6614C112.382 29.2216 112.59 29.5018 113.007 29.5018C113.424 29.5018 114.05 29.2216 114.869 28.6909C115.688 28.1601 116.507 27.3787 117.326 26.3614C118.13 25.3589 118.741 24.4743 119.143 23.7371C119.545 23 119.753 22.4987 119.753 22.2186C119.739 21.9532 119.664 21.8205 119.53 21.8205Z" fill="#37393F"/>
<path d="M122.151 31.4181L121.406 31.3886H121.138C121.034 31.3591 120.93 31.3002 120.811 31.2117C120.691 31.1233 120.602 31.0495 120.542 31.02C120.483 30.9906 120.453 30.9021 120.453 30.7989C120.453 30.6957 120.498 30.504 120.572 30.2534C122.553 25.9336 124.474 22.4689 126.336 19.8888C126.544 19.6087 126.872 19.3876 127.318 19.2401C127.765 19.0927 128.212 19.019 128.644 19.019C128.897 19.019 129.031 19.2106 129.031 19.6087C129.031 19.7267 128.986 19.8741 128.912 20.051C128.837 20.2427 128.629 20.5375 128.301 20.9651C127.974 21.3927 127.587 21.8792 127.14 22.41C126.693 22.9407 126.44 23.2651 126.38 23.3535C127.78 21.9234 129.031 20.8619 130.163 20.1542C131.295 19.4613 132.099 19.1074 132.605 19.1074C133.112 19.1074 133.499 19.2549 133.767 19.535C134.035 19.8151 134.169 20.1247 134.169 20.4491C134.169 20.7734 134.139 21.0536 134.094 21.26C134.05 21.4811 133.96 21.7023 133.841 21.9382C133.722 22.1741 133.618 22.3805 133.529 22.5426C133.439 22.7048 133.29 22.926 133.097 23.1913C132.888 23.4567 132.754 23.6484 132.68 23.7516C132.605 23.8548 132.441 24.0465 132.203 24.3266C131.965 24.6067 131.831 24.7689 131.816 24.7984C132.099 24.5182 132.501 24.1054 133.007 23.5452C133.514 22.9849 133.945 22.5279 134.303 22.1593C134.66 21.7907 135.092 21.3632 135.628 20.8914C136.164 20.4196 136.656 20.0363 137.103 19.7562C138.205 19.078 139.322 18.7241 140.453 18.7241C140.841 18.7241 141.168 18.8421 141.436 19.0927C141.704 19.3433 141.838 19.6235 141.838 19.9626C141.838 20.3017 141.421 21.1125 140.602 22.3805C139.783 23.6484 138.949 24.9311 138.13 26.2137C137.311 27.4964 136.894 28.3073 136.894 28.6464C136.894 29.1034 136.984 29.3835 137.147 29.472C137.326 29.5605 137.535 29.5899 137.773 29.5752C138.011 29.5605 138.368 29.3983 138.8 29.1034C139.247 28.8086 139.634 28.5137 139.977 28.1893C140.543 27.6881 141.049 27.2015 141.541 26.7297C141.645 26.6413 141.749 26.5971 141.883 26.5971C142.077 26.5971 142.196 26.7445 142.24 27.0394C142.285 27.3342 142.3 27.6291 142.3 27.9534C142.3 28.2778 142.27 28.4842 142.211 28.6021C141.913 29.1624 141.258 29.8553 140.26 30.681C139.247 31.4918 138.279 31.9046 137.356 31.9046C137.237 31.9046 137.162 31.9046 137.118 31.8899C136.075 31.7867 135.345 31.5066 134.943 31.0348C134.541 30.563 134.348 30.0028 134.348 29.3688C134.348 28.7348 134.571 27.9387 135.018 27.0246C135.465 26.1105 135.941 25.2702 136.477 24.533C137.013 23.7958 137.49 23.1176 137.937 22.5132C138.383 21.9087 138.607 21.5843 138.607 21.5401C138.607 21.4959 138.562 21.4664 138.488 21.4664C138.175 21.4664 137.475 21.9676 136.373 22.9849C134.511 24.7099 132.903 26.3759 131.548 27.9682C131.19 28.3957 130.342 29.4573 129.016 31.1822C128.867 31.3886 128.614 31.4918 128.286 31.4918C127.959 31.4918 127.616 31.4329 127.259 31.3002C126.901 31.1675 126.723 31.0053 126.723 30.8136C126.723 30.7104 127.527 29.2951 129.15 26.5676C130.773 23.8401 131.578 22.351 131.578 22.1151C131.578 21.8644 131.429 21.7465 131.131 21.7465C130.833 21.7465 130.208 22.1888 129.269 23.0734C126.693 25.506 124.697 27.9387 123.283 30.3419C123.193 30.4893 123.015 30.7104 122.747 31.0053C122.478 31.3002 122.24 31.4181 122.151 31.4181Z" fill="#37393F"/>
<path d="M151.682 20.022C151.682 20.6854 151.414 21.2752 150.863 21.7765C150.312 22.2777 149.701 22.5284 149.001 22.5284C148.778 22.5284 148.629 22.4694 148.555 22.3662C148.48 22.263 148.45 22.1155 148.45 21.9534C148.45 21.7912 148.465 21.6143 148.51 21.4521C148.138 21.57 147.735 21.7617 147.289 22.0123C146.842 22.263 146.291 22.6316 145.636 23.1328C144.98 23.6341 144.653 23.988 144.653 24.2386C144.653 24.3123 144.772 24.3565 145.01 24.3565C145.248 24.3565 145.621 24.2681 146.112 24.1059C146.604 23.9437 146.961 23.8553 147.155 23.8553C147.348 23.8553 147.482 23.87 147.542 23.8847C147.676 23.9585 147.81 24.1059 147.974 24.3418C148.123 24.5777 148.197 24.7693 148.197 24.902C148.197 25.0347 148.063 25.2116 147.795 25.4328C147.527 25.6539 147.229 25.8161 146.901 25.9341C146.559 26.052 146.336 26.1405 146.231 26.1994C144.087 27.3937 143.015 28.2045 143.015 28.6468C143.015 29.4282 143.685 29.8263 145.04 29.8263C145.904 29.8263 146.782 29.5609 147.646 29.0154C148.391 28.5584 149.061 28.0866 149.657 27.6001C150.252 27.1283 150.625 26.8334 150.788 26.7155C150.952 26.5975 151.071 26.5533 151.146 26.5533C151.414 26.5533 151.548 26.8482 151.548 27.4379C151.548 28.0276 151.518 28.4109 151.444 28.5879C151.369 28.7795 151.176 29.0007 150.833 29.2808C148.659 31.0353 146.589 31.9199 144.653 31.9199C143.61 31.9199 142.791 31.7724 142.166 31.4923C141.019 30.9763 140.453 30.1949 140.453 29.1334C140.453 27.7475 141.421 26.686 143.372 25.9783C142.985 25.8014 142.732 25.595 142.627 25.3149C142.508 25.0495 142.464 24.6219 142.464 24.0322C142.464 23.4424 142.747 22.8232 143.298 22.1598C143.849 21.4963 144.534 20.9508 145.338 20.538C147.125 19.5797 148.733 19.1079 150.133 19.1079C150.476 19.1079 150.803 19.1816 151.161 19.3438C151.518 19.506 151.682 19.7271 151.682 20.022Z" fill="#37393F"/>
<path d="M0.719727 35.5019C4.63639 37.1237 8.6275 38.3768 12.6931 39.3352C16.7289 40.3377 20.8391 41.0454 24.9494 41.4877C27.0045 41.7678 29.0746 41.7973 31.1148 41.989C33.1848 42.0037 35.2399 42.1659 37.2951 42.0479L40.3778 41.9742C41.4053 41.9595 42.4329 41.8268 43.4604 41.7678C44.488 41.6793 45.5156 41.6351 46.5282 41.5024L49.5812 41.0749C53.6765 40.6326 57.6528 39.689 61.6141 38.5538C65.6201 37.4628 69.4027 36.0179 73.4087 34.5141C77.5041 33.025 81.942 32.052 86.4395 32.5237C88.6584 32.8039 90.8922 33.5115 92.7091 34.809C94.5408 36.0916 95.8514 37.9198 96.6853 39.8364C95.4344 38.1262 93.8707 36.7256 92.0687 35.8557C90.2668 34.9859 88.2861 34.632 86.3203 34.691C82.3441 34.75 78.4274 36.0621 74.749 37.7134C71.0111 39.5416 66.9604 41.1928 62.8799 42.5639C58.7697 43.8761 54.5254 44.9229 50.2215 45.4536C41.6585 46.5741 32.887 46.5889 24.4282 44.8934C20.1839 44.1267 16.0438 42.9325 12.0378 41.414C8.06159 39.8364 4.17473 37.9935 0.719727 35.5019Z" fill="#40DDB6"/>
<path d="M143.134 10.9547C139.813 9.55405 136.432 8.46305 133.007 7.60793C129.597 6.70859 126.142 6.07463 122.672 5.63233C120.944 5.36695 119.187 5.30798 117.459 5.10157C115.717 5.05734 113.99 4.88042 112.247 4.95414C111.383 4.96888 110.505 4.96888 109.641 4.95414C108.777 4.95414 107.899 5.0426 107.035 5.07208C106.171 5.13106 105.292 5.1458 104.429 5.23426L101.837 5.54387C98.3676 5.82399 95.0019 6.53167 91.6363 7.40153C88.226 8.21241 84.9944 9.36239 81.5542 10.5124C78.0248 11.6771 74.1975 12.3848 70.3553 11.854C68.464 11.5444 66.5578 10.881 65.0536 9.70149C63.5197 8.53676 62.4773 6.94449 61.8369 5.27849C62.8943 6.73808 64.2048 7.93229 65.7089 8.66945C67.213 9.40662 68.8661 9.71623 70.5191 9.70149C73.855 9.70149 77.161 8.63997 80.2884 7.31307C83.4753 5.80925 86.975 4.48235 90.4598 3.39135C93.9744 2.34457 97.6379 1.54843 101.301 1.16511C108.613 0.398454 116.089 0.575373 123.253 2.25611C126.842 3.00802 130.341 4.158 133.692 5.57336C137.058 7.0182 140.304 8.69894 143.134 10.9547Z" fill="#6B77E5"/>
</svg>
