<svg width="80" height="80" viewBox="0 0 80 80" fill="none" xmlns="http://www.w3.org/2000/svg">
<g filter="url(#filter0_d_159_424)">
<circle cx="40" cy="36" r="36" fill="#40DDB6"/>
<path d="M21.625 50.4375H58.375" stroke="white" stroke-width="2" stroke-linecap="round" stroke-linejoin="round"/>
<path d="M42.625 50.4375V21.5625C42.625 21.2144 42.4867 20.8806 42.2406 20.6344C41.9944 20.3883 41.6606 20.25 41.3125 20.25H25.5625C25.2144 20.25 24.8806 20.3883 24.6344 20.6344C24.3883 20.8806 24.25 21.2144 24.25 21.5625V50.4375" stroke="white" stroke-width="2" stroke-linecap="round" stroke-linejoin="round"/>
<path d="M55.75 50.4375V32.0625C55.75 31.7144 55.6117 31.3806 55.3656 31.1344C55.1194 30.8883 54.7856 30.75 54.4375 30.75H42.625" stroke="white" stroke-width="2" stroke-linecap="round" stroke-linejoin="round"/>
<path d="M29.5 26.8125H34.75" stroke="white" stroke-width="2" stroke-linecap="round" stroke-linejoin="round"/>
<path d="M32.125 37.3125H37.375" stroke="white" stroke-width="2" stroke-linecap="round" stroke-linejoin="round"/>
<path d="M29.5 43.875H34.75" stroke="white" stroke-width="2" stroke-linecap="round" stroke-linejoin="round"/>
<path d="M47.875 43.875H50.5" stroke="white" stroke-width="2" stroke-linecap="round" stroke-linejoin="round"/>
<path d="M47.875 37.3125H50.5" stroke="white" stroke-width="2" stroke-linecap="round" stroke-linejoin="round"/>
</g>
<defs>
<filter id="filter0_d_159_424" x="0" y="0" width="80" height="80" filterUnits="userSpaceOnUse" color-interpolation-filters="sRGB">
<feFlood flood-opacity="0" result="BackgroundImageFix"/>
<feColorMatrix in="SourceAlpha" type="matrix" values="0 0 0 0 0 0 0 0 0 0 0 0 0 0 0 0 0 0 127 0" result="hardAlpha"/>
<feOffset dy="4"/>
<feGaussianBlur stdDeviation="2"/>
<feComposite in2="hardAlpha" operator="out"/>
<feColorMatrix type="matrix" values="0 0 0 0 0 0 0 0 0 0 0 0 0 0 0 0 0 0 0.25 0"/>
<feBlend mode="normal" in2="BackgroundImageFix" result="effect1_dropShadow_159_424"/>
<feBlend mode="normal" in="SourceGraphic" in2="effect1_dropShadow_159_424" result="shape"/>
</filter>
</defs>
</svg>
