<svg width="18" height="18" viewBox="0 0 18 18" fill="none" xmlns="http://www.w3.org/2000/svg">
<path d="M12.1048 2.18363C13.0482 2.18634 13.9521 2.54842 14.6192 3.19078C15.2862 3.83314 15.6622 4.70358 15.665 5.61201V12.468C15.6622 13.3765 15.2862 14.2469 14.6192 14.8893C13.9521 15.5316 13.0482 15.8937 12.1048 15.8964H4.98508C4.04172 15.8937 3.13779 15.5316 2.47073 14.8893C1.80366 14.2469 1.42766 13.3765 1.42484 12.468V5.61201C1.42766 4.70358 1.80366 3.83314 2.47073 3.19078C3.13779 2.54842 4.04172 2.18634 4.98508 2.18363H12.1048ZM12.1048 0.8125H4.98508C2.24377 0.8125 0.000976562 2.97222 0.000976562 5.61201V12.468C0.000976562 15.1078 2.24377 17.2675 4.98508 17.2675H12.1048C14.8461 17.2675 17.0889 15.1078 17.0889 12.468V5.61201C17.0889 2.97222 14.8461 0.8125 12.1048 0.8125Z" fill="white"/>
<path d="M13.1733 5.61157C12.962 5.61157 12.7556 5.55125 12.5799 5.43825C12.4043 5.32524 12.2674 5.16462 12.1866 4.9767C12.1057 4.78877 12.0846 4.58199 12.1258 4.38249C12.167 4.18299 12.2687 3.99974 12.4181 3.85591C12.5674 3.71208 12.7577 3.61413 12.9649 3.57445C13.1721 3.53477 13.3868 3.55513 13.582 3.63297C13.7771 3.71081 13.9439 3.84263 14.0613 4.01176C14.1786 4.18088 14.2413 4.37972 14.2413 4.58313C14.2416 4.71827 14.2142 4.85213 14.1606 4.97704C14.107 5.10195 14.0284 5.21544 13.9291 5.31099C13.8299 5.40655 13.712 5.48229 13.5823 5.53387C13.4526 5.58546 13.3136 5.61186 13.1733 5.61157ZM8.54542 6.29695C9.10873 6.29695 9.65938 6.4578 10.1277 6.75917C10.5961 7.06053 10.9612 7.48887 11.1767 7.99002C11.3923 8.49117 11.4487 9.04262 11.3388 9.57464C11.2289 10.1067 10.9577 10.5953 10.5593 10.9789C10.161 11.3625 9.65354 11.6237 9.10106 11.7295C8.54858 11.8353 7.97592 11.781 7.45549 11.5734C6.93507 11.3659 6.49026 11.0143 6.1773 10.5633C5.86435 10.1123 5.69731 9.58202 5.69731 9.03958C5.69811 8.31243 5.99844 7.61528 6.53239 7.10111C7.06634 6.58693 7.7903 6.29773 8.54542 6.29695ZM8.54542 4.92582C7.7005 4.92582 6.87456 5.16709 6.17204 5.61911C5.46951 6.07114 4.92196 6.71362 4.59862 7.46531C4.27529 8.217 4.19069 9.04415 4.35552 9.84214C4.52036 10.6401 4.92723 11.3731 5.52467 11.9485C6.12212 12.5238 6.88332 12.9156 7.712 13.0743C8.54068 13.233 9.39963 13.1516 10.1802 12.8402C10.9608 12.5288 11.628 12.0016 12.0974 11.3251C12.5669 10.6486 12.8174 9.85321 12.8174 9.03958C12.8174 7.94854 12.3673 6.90219 11.5662 6.13071C10.765 5.35923 9.67842 4.92582 8.54542 4.92582Z" fill="white"/>
</svg>
