<svg width="18" height="18" viewBox="0 0 18 18" fill="none" xmlns="http://www.w3.org/2000/svg">
<path d="M9.16687 0.360352C4.37266 0.360352 0.485352 4.24592 0.485352 9.038C0.485352 12.5904 2.62473 15.6431 5.68264 16.9873C5.65938 16.383 5.67876 15.6547 5.83379 14.9961C6.00044 14.2911 6.94999 10.266 6.94999 10.266C6.94999 10.266 6.67094 9.71207 6.67094 8.89466C6.67094 7.60851 7.41507 6.64777 8.34523 6.64777C9.13587 6.64777 9.51568 7.24049 9.51568 7.94942C9.51568 8.74358 9.00797 9.92901 8.7483 11.0292C8.53126 11.9512 9.20951 12.6989 10.1203 12.6989C11.7636 12.6989 12.872 10.5876 12.872 8.08501C12.872 6.1829 11.5892 4.76116 9.25989 4.76116C6.6283 4.76116 4.98501 6.72525 4.98501 8.91791C4.98501 9.67333 5.2098 10.2079 5.55862 10.6186C5.71752 10.8084 5.74077 10.8859 5.68264 11.1028C5.64001 11.2616 5.54699 11.6452 5.50436 11.8001C5.44622 12.0209 5.26794 12.0984 5.07028 12.0171C3.85719 11.5212 3.29134 10.1963 3.29134 8.70097C3.29134 6.23713 5.37258 3.28131 9.49631 3.28131C12.81 3.28131 14.992 5.67928 14.992 8.25159C14.992 11.6568 13.0968 14.1981 10.3063 14.1981C9.36841 14.1981 8.48863 13.6906 8.18633 13.1173C8.18633 13.1173 7.68249 15.1162 7.57397 15.5036C7.39181 16.1738 7.03137 16.8401 6.70194 17.3631C7.50106 17.5988 8.32983 17.7188 9.163 17.7195C13.9572 17.7195 17.8445 13.8339 17.8445 9.04187C17.8445 4.2498 13.9611 0.360352 9.16687 0.360352Z" fill="white"/>
</svg>
