<svg width="15" height="15" viewBox="0 0 15 15" fill="none" xmlns="http://www.w3.org/2000/svg">
<path d="M6.61713 0.867353C6.99964 0.188709 7.97692 0.188707 8.35943 0.867352L9.96149 3.70968C10.1042 3.96286 10.35 4.14143 10.6349 4.19891L13.8331 4.84423C14.5968 4.99831 14.8988 5.92775 14.3715 6.50125L12.1634 8.90323C11.9667 9.11718 11.8728 9.40612 11.9062 9.69482L12.2808 12.936C12.3702 13.7098 11.5796 14.2843 10.8712 13.9601L7.90444 12.6022C7.64018 12.4813 7.33638 12.4813 7.07212 12.6022L4.10535 13.9601C3.39699 14.2843 2.60636 13.7098 2.6958 12.936L3.07039 9.69482C3.10375 9.40612 3.00987 9.11718 2.81318 8.90323L0.60503 6.50126C0.0778036 5.92775 0.379797 4.99831 1.14343 4.84423L4.34171 4.19891C4.62659 4.14143 4.87237 3.96286 5.01508 3.70968L6.61713 0.867353Z" fill="#FFB342"/>
</svg>
